<mxfile host="app.diagrams.net" modified="2023-10-06T20:58:08.293Z" agent="Mozilla/5.0 (Windows NT 10.0; Win64; x64) AppleWebKit/537.36 (KHTML, like Gecko) Chrome/117.0.0.0 Safari/537.36" version="22.0.3" etag="rR0eZLBvg0ANS2cBW8_-" type="github">
  <diagram name="Page-1" id="o-Fcjheau-UZtX10jcUb">
    <mxGraphModel>
      <root>
        <mxCell id="0" />
        <mxCell id="1" parent="0" />
      </root>
    </mxGraphModel>
  </diagram>
</mxfile>
